<svg data-v-423bf9ae="" xmlns="http://www.w3.org/2000/svg" viewBox="0 0 199.37625859350302 60" class="font"><!----><!----><!----><g data-v-423bf9ae="" id="d8b40db8-c265-4cc2-80bf-75cd6af4fef7" fill="black" transform="matrix(6.036217558641619,0,0,6.036217558641619,-3.018112465720762,-25.714287704556696)"><path d="M4.93 14.14L4.93 14.14Q3.72 14.14 2.71 13.47L2.71 13.47L2.71 13.47Q1.69 12.80 1.10 11.66L1.10 11.66L1.10 11.66Q0.50 10.51 0.50 9.18L0.50 9.18L0.50 9.18Q0.50 7.85 1.10 6.72L1.10 6.72L1.10 6.72Q1.69 5.59 2.71 4.92L2.71 4.92L2.71 4.92Q3.72 4.26 4.93 4.26L4.93 4.26L4.93 4.26Q5.95 4.26 6.86 4.75L6.86 4.75L6.86 4.75Q6.99 4.80 7.10 4.80L7.10 4.80L7.10 4.80Q7.39 4.80 7.63 4.61L7.63 4.61L7.63 4.61Q7.70 4.52 7.76 4.50L7.76 4.50L7.76 4.50Q7.81 4.48 7.91 4.48L7.91 4.48L7.91 4.48Q8.01 4.48 8.05 4.52L8.05 4.52L8.05 4.52Q8.09 4.56 8.09 4.66L8.09 4.66L8.16 6.75L8.16 6.75Q8.16 6.83 8.11 6.88L8.11 6.88L8.11 6.88Q8.06 6.93 8.01 6.93L8.01 6.93L8.01 6.93Q7.85 6.93 7.80 6.73L7.80 6.73L7.80 6.73Q7.41 5.75 6.69 5.18L6.69 5.18L6.69 5.18Q5.96 4.61 4.93 4.61L4.93 4.61L4.93 4.61Q3.68 4.61 2.92 5.71L2.92 5.71L2.92 5.71Q2.16 6.82 2.16 9.18L2.16 9.18L2.16 9.18Q2.16 11.58 2.92 12.70L2.92 12.70L2.92 12.70Q3.68 13.82 4.93 13.82L4.93 13.82L4.93 13.82Q5.80 13.82 6.38 13.36L6.38 13.36L6.38 13.36Q6.97 12.89 7.01 12.07L7.01 12.07L7.01 10.68L7.01 10.68Q7.01 10.53 6.91 10.42L6.91 10.42L6.91 10.42Q6.80 10.30 6.65 10.30L6.65 10.30L6.05 10.30L6.05 10.30Q5.96 10.30 5.90 10.24L5.90 10.24L5.90 10.24Q5.84 10.18 5.84 10.09L5.84 10.09L5.84 10.09Q5.84 10.02 5.90 9.98L5.90 9.98L5.90 9.98Q5.96 9.94 6.05 9.94L6.05 9.94L9.17 9.94L9.17 9.94Q9.25 9.94 9.32 9.98L9.32 9.98L9.32 9.98Q9.39 10.02 9.39 10.09L9.39 10.09L9.39 10.09Q9.39 10.18 9.32 10.24L9.32 10.24L9.32 10.24Q9.25 10.30 9.17 10.30L9.17 10.30L8.79 10.30L8.79 10.30Q8.64 10.30 8.52 10.42L8.52 10.42L8.52 10.42Q8.40 10.53 8.40 10.68L8.40 10.68L8.40 13.15L8.44 13.92L8.44 13.92Q8.44 14.00 8.39 14.07L8.39 14.07L8.39 14.07Q8.33 14.14 8.26 14.14L8.26 14.14L8.26 14.14Q8.11 14.14 8.05 14.00L8.05 14.00L7.60 12.96L7.57 12.96L7.57 12.96Q6.96 13.55 6.33 13.85L6.33 13.85L6.33 13.85Q5.70 14.14 4.93 14.14L4.93 14.14ZM10.63 14.01L10.63 14.01Q10.57 14.01 10.55 13.97L10.55 13.97L10.55 13.97Q10.53 13.93 10.53 13.85L10.53 13.85L10.53 13.85Q10.53 13.78 10.56 13.76L10.56 13.76L10.56 13.76Q10.58 13.73 10.67 13.73L10.67 13.73L11.16 13.73L11.16 13.73Q11.28 13.73 11.35 13.64L11.35 13.64L11.35 13.64Q11.42 13.54 11.42 13.41L11.42 13.41L11.42 9.00L11.42 9.00Q11.42 8.85 11.35 8.77L11.35 8.77L11.35 8.77Q11.27 8.69 11.16 8.69L11.16 8.69L10.53 8.69L10.53 8.69Q10.36 8.69 10.36 8.54L10.36 8.54L10.36 8.54Q10.36 8.36 10.54 8.36L10.54 8.36L12.24 8.36L12.24 8.36Q12.46 8.36 12.46 8.58L12.46 8.58L12.46 9.72L12.46 9.72Q12.46 9.63 12.63 9.26L12.63 9.26L12.63 9.26Q12.80 8.89 13.16 8.56L13.16 8.56L13.16 8.56Q13.52 8.23 14.11 8.23L14.11 8.23L14.11 8.23Q14.63 8.23 14.87 8.48L14.87 8.48L14.87 8.48Q15.11 8.74 15.11 9.09L15.11 9.09L15.11 9.09Q15.11 9.38 14.94 9.60L14.94 9.60L14.94 9.60Q14.77 9.81 14.50 9.81L14.50 9.81L14.50 9.81Q14.25 9.81 14.09 9.65L14.09 9.65L14.09 9.65Q13.93 9.49 13.93 9.24L13.93 9.24L13.93 9.24Q13.93 8.99 14.07 8.83L14.07 8.83L14.07 8.83Q14.14 8.76 14.14 8.71L14.14 8.71L14.14 8.71Q14.14 8.64 14.06 8.59L14.06 8.59L14.06 8.59Q13.97 8.54 13.83 8.54L13.83 8.54L13.83 8.54Q13.52 8.54 13.21 8.81L13.21 8.81L13.21 8.81Q12.89 9.09 12.68 9.63L12.68 9.63L12.68 9.63Q12.46 10.16 12.46 10.91L12.46 10.91L12.46 13.51L12.46 13.51Q12.46 13.64 12.49 13.67L12.49 13.67L12.49 13.67Q12.52 13.71 12.61 13.71L12.61 13.71L13.33 13.71L13.33 13.71Q13.40 13.71 13.45 13.74L13.45 13.74L13.45 13.74Q13.51 13.78 13.51 13.85L13.51 13.85L13.51 13.85Q13.51 14.01 13.33 14.01L13.33 14.01L10.63 14.01ZM17.46 14.20L17.46 14.20Q16.66 14.20 16.25 13.75L16.25 13.75L16.25 13.75Q15.83 13.30 15.83 12.67L15.83 12.67L15.83 12.67Q15.83 12.00 16.32 11.56L16.32 11.56L16.32 11.56Q16.80 11.13 17.54 10.93L17.54 10.93L17.54 10.93Q18.26 10.71 19.07 10.71L19.07 10.71L19.26 10.72L19.26 10.46L19.26 10.46Q19.26 9.88 19.19 9.49L19.19 9.49L19.19 9.49Q19.12 9.10 18.84 8.83L18.84 8.83L18.84 8.83Q18.56 8.55 17.99 8.55L17.99 8.55L17.99 8.55Q17.57 8.55 17.44 8.67L17.44 8.67L17.44 8.67Q17.32 8.78 17.32 8.90L17.32 8.90L17.32 8.90Q17.32 8.97 17.39 9.13L17.39 9.13L17.39 9.13Q17.46 9.28 17.46 9.35L17.46 9.35L17.46 9.35Q17.46 9.66 17.29 9.81L17.29 9.81L17.29 9.81Q17.14 10.00 16.86 10.00L16.86 10.00L16.86 10.00Q16.60 10.00 16.41 9.80L16.41 9.80L16.41 9.80Q16.31 9.69 16.27 9.59L16.27 9.59L16.27 9.59Q16.23 9.49 16.23 9.37L16.23 9.37L16.23 9.37Q16.23 9.10 16.41 8.88L16.41 8.88L16.41 8.88Q16.70 8.54 17.18 8.43L17.18 8.43L17.18 8.43Q17.67 8.32 18.10 8.32L18.10 8.32L18.10 8.32Q18.77 8.32 19.22 8.47L19.22 8.47L19.22 8.47Q19.67 8.62 19.94 8.96L19.94 8.96L19.94 8.96Q20.16 9.25 20.21 9.59L20.21 9.59L20.21 9.59Q20.26 9.93 20.26 10.72L20.26 10.72L20.26 12.89L20.26 12.89Q20.26 13.66 20.66 13.66L20.66 13.66L20.66 13.66Q20.89 13.66 21.11 13.44L21.11 13.44L21.11 13.44Q21.14 13.43 21.15 13.41L21.15 13.41L21.15 13.41Q21.17 13.38 21.20 13.38L21.20 13.38L21.20 13.38Q21.28 13.38 21.28 13.48L21.28 13.48L21.28 13.48Q21.28 13.68 20.96 13.91L20.96 13.91L20.96 13.91Q20.65 14.14 20.36 14.14L20.36 14.14L20.36 14.14Q19.99 14.14 19.72 13.87L19.72 13.87L19.72 13.87Q19.45 13.59 19.31 13.19L19.31 13.19L19.31 13.19Q19.26 13.19 19.24 13.17L19.24 13.17L19.24 13.17Q19.22 13.16 19.21 13.19L19.21 13.19L19.21 13.19Q18.61 14.20 17.46 14.20L17.46 14.20ZM17.86 13.71L17.86 13.71Q18.24 13.71 18.56 13.51L18.56 13.51L18.56 13.51Q18.89 13.31 19.07 13.03L19.07 13.03L19.07 13.03Q19.26 12.75 19.26 12.52L19.26 12.52L19.26 10.99L19.26 10.99Q18.86 10.99 18.40 11.05L18.40 11.05L18.40 11.05Q17.93 11.12 17.63 11.27L17.63 11.27L17.63 11.27Q17.15 11.51 17.00 11.91L17.00 11.91L17.00 11.91Q16.86 12.31 16.86 12.63L16.86 12.63L16.86 12.63Q16.86 12.99 17.08 13.35L17.08 13.35L17.08 13.35Q17.30 13.71 17.86 13.71L17.86 13.71ZM23.41 6.41L23.41 6.41Q23.14 6.41 22.95 6.22L22.95 6.22L22.95 6.22Q22.76 6.02 22.76 5.75L22.76 5.75L22.76 5.75Q22.76 5.49 22.95 5.29L22.95 5.29L22.95 5.29Q23.14 5.08 23.41 5.08L23.41 5.08L23.41 5.08Q23.67 5.08 23.88 5.29L23.88 5.29L23.88 5.29Q24.09 5.50 24.09 5.75L24.09 5.75L24.09 5.75Q24.09 6.02 23.89 6.22L23.89 6.22L23.89 6.22Q23.69 6.41 23.41 6.41L23.41 6.41ZM22.23 14.01L22.23 14.01Q22.18 14.01 22.16 13.97L22.16 13.97L22.16 13.97Q22.13 13.93 22.13 13.85L22.13 13.85L22.13 13.85Q22.13 13.78 22.16 13.76L22.16 13.76L22.16 13.76Q22.19 13.73 22.27 13.73L22.27 13.73L22.67 13.73L22.67 13.73Q22.79 13.73 22.86 13.64L22.86 13.64L22.86 13.64Q22.92 13.54 22.92 13.41L22.92 13.41L22.92 9.00L22.92 9.00Q22.92 8.69 22.67 8.69L22.67 8.69L22.13 8.69L22.13 8.69Q21.97 8.69 21.97 8.54L21.97 8.54L21.97 8.54Q21.97 8.36 22.15 8.36L22.15 8.36L23.73 8.36L23.73 8.36Q23.94 8.36 23.94 8.58L23.94 8.58L23.94 13.51L23.94 13.51Q23.94 13.64 23.98 13.67L23.98 13.67L23.98 13.67Q24.02 13.71 24.12 13.71L24.12 13.71L24.58 13.71L24.58 13.71Q24.72 13.71 24.72 13.85L24.72 13.85L24.72 13.85Q24.72 14.01 24.58 14.01L24.58 14.01L22.23 14.01ZM25.97 14.01L25.97 14.01Q25.87 14.01 25.87 13.85L25.87 13.85L25.87 13.85Q25.87 13.78 25.90 13.76L25.90 13.76L25.90 13.76Q25.93 13.73 26.01 13.73L26.01 13.73L26.42 13.73L26.42 13.73Q26.54 13.73 26.60 13.64L26.60 13.64L26.60 13.64Q26.66 13.55 26.66 13.41L26.66 13.41L26.66 5.07L26.66 5.07Q26.66 4.90 26.59 4.81L26.59 4.81L26.59 4.81Q26.52 4.72 26.42 4.72L26.42 4.72L25.87 4.72L25.87 4.72Q25.70 4.72 25.70 4.56L25.70 4.56L25.70 4.56Q25.70 4.48 25.75 4.45L25.75 4.45L25.75 4.45Q25.79 4.41 25.89 4.41L25.89 4.41L27.47 4.41L27.47 4.41Q27.68 4.41 27.68 4.62L27.68 4.62L27.68 13.51L27.68 13.51Q27.68 13.64 27.72 13.67L27.72 13.67L27.72 13.67Q27.76 13.71 27.86 13.71L27.86 13.71L28.32 13.71L28.32 13.71Q28.46 13.71 28.46 13.85L28.46 13.85L28.46 13.85Q28.46 14.01 28.32 14.01L28.32 14.01L25.97 14.01ZM31.50 14.14L31.50 14.14Q30.79 14.14 30.24 13.75L30.24 13.75L30.24 13.75Q30.21 13.73 30.20 13.72L30.20 13.72L30.20 13.72Q30.18 13.71 30.16 13.71L30.16 13.71L30.06 13.75L29.71 14.03L29.71 14.03Q29.65 14.07 29.61 14.07L29.61 14.07L29.53 14.06L29.53 14.06Q29.44 14.01 29.44 13.93L29.44 13.93L29.44 12.49L29.44 12.49Q29.44 12.35 29.61 12.35L29.61 12.35L29.61 12.35Q29.67 12.35 29.70 12.38L29.70 12.38L29.70 12.38Q29.74 12.42 29.74 12.43L29.74 12.43L29.74 12.43Q30.02 13.10 30.51 13.47L30.51 13.47L30.51 13.47Q31.01 13.83 31.57 13.83L31.57 13.83L31.57 13.83Q32.06 13.83 32.49 13.57L32.49 13.57L32.49 13.57Q32.91 13.31 32.91 12.80L32.91 12.80L32.91 12.80Q32.91 12.29 32.54 12.05L32.54 12.05L32.54 12.05Q32.16 11.82 31.49 11.63L31.49 11.63L31.15 11.54L31.15 11.54Q30.46 11.30 29.97 10.93L29.97 10.93L29.97 10.93Q29.48 10.57 29.48 9.83L29.48 9.83L29.48 9.83Q29.48 9.09 30.05 8.67L30.05 8.67L30.05 8.67Q30.62 8.25 31.35 8.25L31.35 8.25L31.35 8.25Q31.61 8.25 31.82 8.31L31.82 8.31L31.82 8.31Q32.03 8.37 32.47 8.55L32.47 8.55L32.47 8.55Q32.48 8.55 32.49 8.57L32.49 8.57L32.49 8.57Q32.49 8.58 32.51 8.58L32.51 8.58L32.51 8.58Q32.56 8.58 32.61 8.54L32.61 8.54L32.75 8.41L32.75 8.41Q32.76 8.40 32.78 8.39L32.78 8.39L32.78 8.39Q32.80 8.37 32.83 8.37L32.83 8.37L32.96 8.37L32.96 8.37Q33.05 8.37 33.05 8.50L33.05 8.50L33.12 9.73L33.12 9.73Q33.12 9.87 33.01 9.87L33.01 9.87L33.01 9.87Q32.98 9.87 32.95 9.85L32.95 9.85L32.95 9.85Q32.91 9.83 32.90 9.80L32.90 9.80L32.90 9.80Q32.58 9.24 32.20 8.88L32.20 8.88L32.20 8.88Q31.82 8.51 31.28 8.51L31.28 8.51L31.28 8.51Q30.84 8.51 30.48 8.75L30.48 8.75L30.48 8.75Q30.11 8.99 30.11 9.45L30.11 9.45L30.11 9.45Q30.11 9.86 30.41 10.05L30.41 10.05L30.41 10.05Q30.72 10.25 31.43 10.49L31.43 10.49L31.43 10.49Q31.56 10.53 32.19 10.72L32.19 10.72L32.19 10.72Q32.82 10.91 33.17 11.31L33.17 11.31L33.17 11.31Q33.53 11.72 33.53 12.35L33.53 12.35L33.53 12.35Q33.53 12.96 33.22 13.37L33.22 13.37L33.22 13.37Q32.91 13.78 32.45 13.96L32.45 13.96L32.45 13.96Q31.99 14.14 31.50 14.14L31.50 14.14Z"></path></g><!----><!----></svg>